<svg xmlns="http://www.w3.org/2000/svg" viewBox="0 0 463.06 334.88"><defs><style>.cls-1{fill:#fff;}.cls-1,.cls-2{fill-rule:evenodd;}</style></defs><title>Recurso 1</title><g id="Capa_2" data-name="Capa 2"><g id="Layer_1" data-name="Layer 1"><path class="cls-1" d="M43.5,0C46.87,2.2,52.23,5.06,56,7.66c4,2.78,8.67,5,12,7.91,2.63,2.35,4.45,6.65,6.61,10.47,3.58,6.3,7.6,10.86,11.7,16.84,1,1.41,1.78,3,2.8,4.34s2.54,2.47,3.31,3.83c1.17,2.06,1.79,4.83,2.8,7.4.9,2.31,2.16,4.56,3,6.89s1.55,5,2.54,7.4c1.62,3.85,2.49,5.3,2.8,10.21.55,8.67,1.93,17.28,2.55,25.78.16,2.23-.19,4.61,0,6.9.49,6.16,2.67,10.49,5.08,14.8,1.77,3.15,2.56,5.86,3.31,10.46a15.29,15.29,0,0,1-1,9.7c-1.32,0-1.73-1-3.3-.76-1.16,1.64,1.23,2.87.76,3.83a3.61,3.61,0,0,1-3.31,0c-3.9,2.21-7.5,4.72-9.66,8.68-.75-.57-1-1.54-2.29-1.54a2,2,0,0,0-2,1.54c-1.5-1.57-4-2.17-5.6-3.58-.08-1.95,1.76-2,2.55-3.06,1-5.4-3.1-6.92-3.31-10.21,3.44.63,3.31,4.85,6.87,5.36a25.86,25.86,0,0,1-.51,3.32c-.61,1.53-2.3,1.84-2.54,3.57,1.6.25,3-2,4.58-2.55,2.31-5.91-4-8.17-6.87-11-7.22-.6-8.39,4.86-13.49,6.38-.93-.74.1-1.9-.51-2.8-2.48.45-3.52,3.53-6.61,2.55.08-2.48,3.34-1.76,3.82-3.83-1.3-4.42-6.93-1-9.93-.77a31.56,31.56,0,0,0-3-3.57c-4.66-.42-5.42,3.07-9.16,3.57-1.91-1.06-1.06-4-1.52-6.12-.39-1.81-2.17-2.72-1.53-4.09,2.34.89,4.81,1.64,6.36,3.32-2.09.08-3.74.24-3.31,3.32,3-.77,5-2.44,8.14-3.06a9.41,9.41,0,0,1,6.62,5.1c1.57-.61.22-2.49.25-3.83a12.56,12.56,0,0,0-3.56-2.29c-1.46-.59-3.22-.5-4.83-1-1-.33-1.82-1.2-2.8-1.54A11.74,11.74,0,0,0,41,138.6a9.77,9.77,0,0,0,.76,3.31c-1.26,2.4-1.39,5.93-2.29,8.68-5.31-1.39-7.89-5.52-14.75-5.36-1-.23-.86-1.69-1.27-2.55-.83-1-2-1.7-2.8-2.81-.93-.25-.22,1.34-1,.51-6.41-4.8-13.06-9.35-19.59-14V0ZM65.13,135.79c-.07.53-1.12.07-1.27.51a1.46,1.46,0,0,1-.26,1c2.22,2.29,5.75,3.25,9.16,4.34a6.56,6.56,0,0,1,1.78-2.3c2,2-3.31,1.71-1.53,4.34,3.55-.26,4.85-3.13,3.82-6.63C72.35,138.65,68.63,138.3,65.13,135.79Zm14.5,4.08c-1.19,2.13-3.37,3.26-4.07,5.87,2.56-.25,3-1.31,5.59-.51-.24-2.12.83-2.91.77-4.85A3.21,3.21,0,0,0,79.63,139.87Zm34.6,5.36c-.38-1.24,0-3.2-.51-4.34C109.72,139,110.78,148.24,114.23,145.23Z"/><path class="cls-2" d="M43.5,0h6.11c5.81,3.77,11.73,7.72,17.55,11.74a16.73,16.73,0,0,1,3.56,2.55c4.63,5.29,7.55,12.51,12,18.89,2.13,3.07,4.52,6,6.62,8.94s4.74,6,6.36,8.93C97.05,53.57,98,56.88,99.22,60c3.24,8.27,8.2,18.49,8.9,28.33.07.91-.08,1.89,0,2.81.48,5.73,1.34,11.52,1.78,17.61.27,3.71-.26,7.66.26,11.23a30.73,30.73,0,0,0,3.3,8.94c2.27,4.51,4.6,7.73,5.09,14.55a22.47,22.47,0,0,1,0,4.85c-.75,4.61-4.78,8.41-8.39,10.46,2.24,1.83,5.15,1.61,7.37,3.06,1.71,1.12,4.63,5.14,5.09,7.66,1.59,8.75-7.36,15.26-10.43,20.68a60.73,60.73,0,0,1-8.14,4.85c.44,5.46,2.07,10.07,3.31,15.06,1.9,7.65,3.43,15.19,5.59,22.71.53,1.81,1.06,3.77,1.53,5.62a30.56,30.56,0,0,1,1.27,5.61c.11,2.74-1.3,5.44-1.52,8.17a18,18,0,0,1-5.09,4.85c-.79.51-1.4,1.34-2,1.53-1.15.35-2.85-.09-4.32.26s-2.58,1.6-3.82,1.78c-5,.75-9.51-3.26-14-2.8-2.39,3.32,2.21,5.6,1,10.21-1.81,2.95-4,5.55-5.85,8.42a21.21,21.21,0,0,0-4.07,2,9.28,9.28,0,0,0-2.8,3.57c-.67,2.86,1.14,5.5.51,8.43a8.67,8.67,0,0,1-2.29,3.83c-2,1.59-5.62,1.5-7.89,3.31a9.68,9.68,0,0,0-2.54,3.83c-.32,1.79.48,4.27.76,6.13s1.09,4,1,5.87-1.26,4.5-2.29,6.64c-2.16,4.47-3.4,6.14-6.87,9.18-2.53,2.22-4.61,4.15-7.89,5.62H38.67c2.6-2.72,6.38-3.92,9.67-5.87,1.76-1.05,2.75-3.08,4.83-3.57,1.61-2.79,5.43-6.34,6.11-11.75.36-3-.56-5.49-1-8.42-.38-2.4-.54-6-2.29-7.4s-4.22-.69-6.36-1c-1.7-1.87-4.9-2.23-4.58-6.13,2.88-1.11,6.12,1,9.92,1,2.69,0,5.36-.6,7.63-.25.63.1,1.42.35,2,.51a8.45,8.45,0,0,0,2,.51c2.79-.28,4.23-3.26,3.82-6.38-4,2-9.31,0-11.7-2.55-2.24-.36-5.86-.5-7.63-2.05-1.71,0-1.36,2-3.57,1.54a31.88,31.88,0,0,1-.51-4.34c-2.38-1.78-5.63-2.68-8.39-4.09-3.31.62-5,2.3-7.63,4.09-1.36.92-3,1.68-4.07,2.55-.85.68-1.59,2.35-3.06,2-.26-2.73,1.57-3.36,2.29-5.1,0-1.19-1.37-1.45-.76-2.56,1.23-1.59,3.45-1.46,5.09-2a43,43,0,0,0,4.83-2C37.7,270.4,39.65,269,43,269c1.32,0,2.71.48,4.07.51,2.07,0,5.19-.49,7.64.25s3.74,2.6,6.1,3.83,6.51,1.05,9.92,1c2.3,1.44,4.88.24,6.62-1.27s5.18-6,5.34-8.43c.23-3.53-2.7-5.66-5.09-7.91-4.1-3.87-8.93-6.23-12.21-11.23-2.66-4.06-5.14-6.93-6.87-11.23-.28-3.48.41-5.24,2-8.17s3.06-5.36,5.59-6.89c4.49.41,8.36-.07,12,.25,4.76.43,7.8,3.62,11.2,5.88.94,2.9.94,5.93-1,7.65-5.61.1-7.16-3.88-8.65-7.91-1.27-.43-2.61-.79-3.82-1.28-1,.33-2,1-3.31,1.28s-3.17-.08-3.81,1.28c.51,2.88,2.85,3.79,3.31,6.38.16.93-.34,2.17,0,3.32.48,1.65,3.36,3.76,5.34,5.1a39.76,39.76,0,0,0,6.36,3.83c2,.75,4.76.74,6.61,1.53,3,1.26,5.16,4.14,7.89,5.62s5.3,1.62,7.89,2.8A14.39,14.39,0,0,0,111.94,243c-.13-3.89-1.88-8.34-3.06-12.76-2.71-10.26-4.69-20.77-7.88-31.14-1-3.13-1.74-5.59-.77-7.91,1.45-.24,2.57-1.64,4.08-1,5.09-2,7.72-6.55,10.68-10.72-.24-2.28-1.67-4.33,0-5.36,1-.63,1.85,1.31,3.31.51.9-2,.38-5,.25-6.64-1.48-1.84-4.28-.81-6.61-.25-.46,1.14,2.38,2,.51,3.31-.78.1-.53-.83-.77-1.27-2.15,2.16-5.24,2.34-8.65,1.27-1.94,1.63-3.09,4.05-5.34,5.36-1.61-.94-3.23-2.25-5.34-2-1.45.14-2.31,1.63-3.82,1.28-.09-3.41,1.91-4.72,2.55-7.4,1.54.08,1.83,1.35,3,1s1.56-2.11,2.54-3.32c.17-.66-.28-2.62.77-3.06-.73-.23-2.69,1.72-3.56,0a6.42,6.42,0,0,1-1.28,1.27c-4.27-1.39-10.18-1.45-11.95,1.79-.6,1.09-.41,2.88-.77,4.08-1.34,4.56-5,8.5-6.36,12.25-2.24,1.84-4.07,4.09-8.14,4.09-1-1.43-2.7-1.32-2.54-3.07s3.12-2,3.81-3.57c-.15-1.56.14-2.29-1-3.06-1.63.22-2.77,2.17-3.82,3.83-.94,1.48-2,3.2-2.8,4.85-2.49,4.85-6.29,10.59-2.29,14.8,2.29,1,5.11.12,7.13,1-.56,2.31-6.21,2.68-8.15,2-1.62-.53-4.32-4.94-4.57-7.65-.47-4.93,3-8.84,4.32-11.74-1.07-1.61-2.73-1.05-4.07-1.79-2.44-1.36-2.88-5.15-6.36-5.36-2-3.93-2.6-9.3-3.56-14.29a65,65,0,0,0-20.35-14.81c.09-1.2-1.34-.87-1.28-2C13.13,141.42,7.39,136.37,0,133v-6.63c6.53,4.68,13.18,9.23,19.59,14,.8.83.09-.76,1-.51.76,1.11,2,1.77,2.8,2.81.41.86.23,2.32,1.27,2.55,6.86-.16,9.44,4,14.75,5.36.9-2.75,1-6.28,2.29-8.68A9.77,9.77,0,0,1,41,138.6a11.74,11.74,0,0,1,12.72-3.07c1,.34,1.8,1.21,2.8,1.54,1.61.52,3.37.43,4.83,1a12.56,12.56,0,0,1,3.56,2.29c0,1.34,1.32,3.22-.25,3.83a9.41,9.41,0,0,0-6.62-5.1c-3.11.62-5.17,2.29-8.14,3.06-.43-3.08,1.22-3.24,3.31-3.32-1.55-1.68-4-2.43-6.36-3.32-.64,1.37,1.14,2.28,1.53,4.09.46,2.16-.39,5.06,1.52,6.12,3.74-.5,4.5-4,9.16-3.57a31.56,31.56,0,0,1,3,3.57c3-.2,8.63-3.65,9.93.77-.48,2.07-3.74,1.35-3.82,3.83,3.09,1,4.13-2.1,6.61-2.55.61.9-.42,2.06.51,2.8,5.1-1.52,6.27-7,13.49-6.38,2.86,2.81,9.18,5.07,6.87,11-1.62.6-3,2.8-4.58,2.55.24-1.73,1.93-2,2.54-3.57a25.86,25.86,0,0,0,.51-3.32c-3.56-.51-3.43-4.73-6.87-5.36.21,3.29,4.35,4.81,3.31,10.21-.79,1.08-2.63,1.11-2.55,3.06,1.65,1.41,4.1,2,5.6,3.58a2,2,0,0,1,2-1.54c1.25,0,1.54,1,2.29,1.54,2.16-4,5.76-6.47,9.66-8.68a3.61,3.61,0,0,0,3.31,0c.47-1-1.92-2.19-.76-3.83,1.57-.21,2,.73,3.3.76a15.29,15.29,0,0,0,1-9.7c-.75-4.6-1.54-7.31-3.31-10.46-2.41-4.31-4.59-8.64-5.08-14.8-.19-2.29.16-4.67,0-6.9-.62-8.5-2-17.11-2.55-25.78-.31-4.91-1.18-6.36-2.8-10.21-1-2.35-1.65-5.07-2.54-7.4s-2.15-4.58-3-6.89c-1-2.57-1.63-5.34-2.8-7.4-.77-1.36-2.19-2.42-3.31-3.83s-1.83-2.93-2.8-4.34c-4.1-6-8.12-10.54-11.7-16.84-2.16-3.82-4-8.12-6.61-10.47-3.29-2.94-8-5.13-12-7.91C52.23,5.06,46.87,2.2,43.5,0Zm2.29,155.44c1.19.11,2.36-1.84,2.8-3.32C46.92,149.89,46.1,153.9,45.79,155.44Zm22.39-1.78c0,.32-.33.35-.25.76.46,1.83,4.66,4.27,7.12,3.32C74.6,154.2,70.92,153.63,68.18,153.66Zm34.34,6.12c1.33-1.56,3.21-2.56,4.58-4.08C105.62,157,102.37,158.09,102.52,159.78Zm0,3.58c1.75.78,3.78,1.38,5.35,0-1.3-.15-1.71-1.18-2.55-1.79,0-1.13,0-2.2-.76-2.55A5.84,5.84,0,0,0,102.52,163.36Zm-49.6-1.28c.29,1.29,2.64,1.69,3.81,1.28C56.15,162.35,54,161.79,52.92,162.08Zm-6.36,3.57a7,7,0,0,0-1,2.81c2.18,1.81,4.28,3.7,4.83,7.15,2.42.93,6.09,4.45,8.65,2-.62-.82-1.76-1.12-3.31-1C53,172.6,51.18,167.74,46.56,165.65Zm61.05,4.09c1.24,1.24,2.31-1,3.06-1.79C109.52,166.8,107.84,168.39,107.61,169.74Z"/><path class="cls-1" d="M0,133c7.39,3.39,13.13,8.44,19.84,12.51-.06,1.17,1.37.84,1.28,2a65,65,0,0,1,20.35,14.81c1,5,1.54,10.36,3.56,14.29,3.48.21,3.92,4,6.36,5.36,1.34.74,3,.18,4.07,1.79-1.28,2.9-4.79,6.81-4.32,11.74.25,2.71,3,7.12,4.57,7.65,1.94.64,7.59.27,8.15-2-2-.9-4.84,0-7.13-1-4-4.21-.2-10,2.29-14.8.85-1.65,1.86-3.37,2.8-4.85,1-1.66,2.19-3.61,3.82-3.83,1.15.77.86,1.5,1,3.06-.69,1.6-3.66,1.84-3.81,3.57s1.51,1.64,2.54,3.07c4.07,0,5.9-2.25,8.14-4.09,1.36-3.75,5-7.69,6.36-12.25.36-1.2.17-3,.77-4.08,1.77-3.24,7.68-3.18,11.95-1.79a6.42,6.42,0,0,0,1.28-1.27c.87,1.72,2.83-.23,3.56,0-1,.44-.6,2.4-.77,3.06-1,1.21-1.23,3-2.54,3.32s-1.51-.94-3-1c-.64,2.68-2.64,4-2.55,7.4,1.51.35,2.37-1.14,3.82-1.28,2.11-.21,3.73,1.1,5.34,2,2.25-1.31,3.4-3.73,5.34-5.36,3.41,1.07,6.5.89,8.65-1.27.24.44,0,1.37.77,1.27,1.87-1.3-1-2.17-.51-3.31,2.33-.56,5.13-1.59,6.61.25.13,1.63.65,4.68-.25,6.64-1.46.8-2.3-1.14-3.31-.51-1.67,1-.24,3.08,0,5.36-3,4.17-5.59,8.68-10.68,10.72-1.51-.62-2.63.78-4.08,1-1,2.32-.19,4.78.77,7.91,3.19,10.37,5.17,20.88,7.88,31.14,1.18,4.42,2.93,8.87,3.06,12.76a14.39,14.39,0,0,1-5.85,12.25c-2.59-1.18-5.16-1.32-7.89-2.8s-4.93-4.36-7.89-5.62c-1.85-.79-4.62-.78-6.61-1.53a39.76,39.76,0,0,1-6.36-3.83c-2-1.34-4.86-3.45-5.34-5.1-.34-1.15.16-2.39,0-3.32-.46-2.59-2.8-3.5-3.31-6.38.64-1.36,2.41-.92,3.81-1.28s2.3-.95,3.31-1.28c1.21.49,2.55.85,3.82,1.28,1.49,4,3,8,8.65,7.91,2-1.72,2-4.75,1-7.65-3.4-2.26-6.44-5.45-11.2-5.88-3.6-.32-7.47.16-12-.25-2.53,1.53-4,4.06-5.59,6.89s-2.32,4.69-2,8.17c1.73,4.3,4.21,7.17,6.87,11.23,3.28,5,8.11,7.36,12.21,11.23,2.39,2.25,5.32,4.38,5.09,7.91-.16,2.4-3.51,6.83-5.34,8.43s-4.32,2.71-6.62,1.27c-3.41,0-7.6.19-9.92-1s-3.76-3.11-6.1-3.83-5.57-.21-7.64-.25c-1.36,0-2.75-.49-4.07-.51-3.34-.07-5.29,1.37-7.63,2.55a43,43,0,0,1-4.83,2c-1.64.58-3.86.45-5.09,2-.61,1.11.73,1.37.76,2.56-.72,1.74-2.55,2.37-2.29,5.1,1.47.31,2.21-1.36,3.06-2,1.07-.87,2.71-1.63,4.07-2.55,2.63-1.79,4.32-3.47,7.63-4.09,2.76,1.41,6,2.31,8.39,4.09a31.88,31.88,0,0,0,.51,4.34c2.21.5,1.86-1.54,3.57-1.54,1.77,1.55,5.39,1.69,7.63,2.05,2.39,2.55,7.72,4.59,11.7,2.55.41,3.12-1,6.1-3.82,6.38a8.45,8.45,0,0,1-2-.51c-.62-.16-1.41-.41-2-.51-2.27-.35-4.94.27-7.63.25-3.8,0-7-2.13-9.92-1-.32,3.9,2.88,4.26,4.58,6.13,2.14.33,4.74-.23,6.36,1s1.91,5,2.29,7.4c.46,2.93,1.38,5.46,1,8.42-.68,5.41-4.5,9-6.11,11.75-2.08.49-3.07,2.52-4.83,3.57-3.29,1.95-7.07,3.15-9.67,5.87H0ZM82.68,165.4c-1.08,5.46-4.85,8.24-6.1,13.53,1.37.31,1.71-1.2,2.29-2.05,2.28-3.37,5.06-6.59,5.85-11A2.83,2.83,0,0,0,82.68,165.4Zm13.74,14a2.67,2.67,0,0,0,.25,1.78c2,.29,2.72-1.54,3.56-2.55s1.9-2.21,2.8-3.32v-1.53c.13-.6,2.14-1.59,1-1.79C102.39,172.93,96.63,178.29,96.42,179.44Zm-12-1.53a37.22,37.22,0,0,1-4.32,4.84c-1.32,1.38-3.29,2.67-3.31,4.6,2.33.63,2.53-2.23,3.56-2,0,.42-.82,1.62.26,1.53,2.17.15,2.27-2.13,1.52-3.58.66-.27,1-.92,1.78-1a4.69,4.69,0,0,1,1.28,1.54c-1.11,3.4-3,5-5.35,7.14-1.47,1.31-3.07,2.67-4.83,3.07a10.85,10.85,0,0,1-.51-2.56c-2.22-3-8.44-4-12-1.53-1.43,3-4.14,4.69-4.32,8.94,2,0,2.7-1.9,3.56-3.07s1.78-2.66,2.8-3.83c2.07-1.27,6.11-2.46,7.88,0-.17,2.41-2.52,3.9-2.28,5.87,3.09,2.86,4.88-3.74,8.9-2.29a14.09,14.09,0,0,0,3.31-4.6c2.14-1.28,5.29-3.53,5.34-6.38,0-1.26-1.26-2.49-1.27-3.83,0-1,.64-1.19.51-2.3C86.58,177.82,85.52,177.86,84.46,177.91Zm-8.65,9.44c.2-1.11-.88-3-1-4.6H73.52C72.77,184.48,73.07,188.56,75.81,187.35Zm-37.9,91.38c-.41,1.29,1,2.53,2,3.82,1.53,2,2.78,4.47,5.09,2.3C45.1,280.57,41.68,277.5,37.91,278.73Z"/><path class="cls-2" d="M76.83,137.07c1,3.5-.27,6.37-3.82,6.63-1.78-2.63,3.49-2.3,1.53-4.34a6.56,6.56,0,0,0-1.78,2.3c-3.41-1.09-6.94-2-9.16-4.34a1.46,1.46,0,0,0,.26-1c.15-.44,1.2,0,1.27-.51C68.63,138.3,72.35,138.65,76.83,137.07Z"/><path class="cls-2" d="M81.92,140.38c.06,1.94-1,2.73-.77,4.85-2.6-.8-3,.26-5.59.51.7-2.61,2.88-3.74,4.07-5.87A3.21,3.21,0,0,1,81.92,140.38Z"/><path class="cls-2" d="M113.72,140.89c.48,1.14.13,3.1.51,4.34C110.78,148.24,109.72,139,113.72,140.89Z"/><path class="cls-1" d="M48.59,152.12c-.44,1.48-1.61,3.43-2.8,3.32C46.1,153.9,46.92,149.89,48.59,152.12Z"/><path class="cls-1" d="M75.05,157.74c-2.46.95-6.66-1.49-7.12-3.32-.08-.41.24-.44.25-.76C70.92,153.63,74.6,154.2,75.05,157.74Z"/><path class="cls-1" d="M104.56,159c.74.35.78,1.42.76,2.55.84.61,1.25,1.64,2.55,1.79-1.57,1.38-3.6.78-5.35,0A5.84,5.84,0,0,1,104.56,159Z"/><path class="cls-1" d="M56.73,163.36c-1.17.41-3.52,0-3.81-1.28C54,161.79,56.15,162.35,56.73,163.36Z"/><path class="cls-2" d="M84.72,165.91c-.79,4.38-3.57,7.6-5.85,11-.58.85-.92,2.36-2.29,2.05,1.25-5.29,5-8.07,6.1-13.53A2.83,2.83,0,0,1,84.72,165.91Z"/><path class="cls-1" d="M55.71,176.63c1.55-.1,2.69.2,3.31,1-2.56,2.41-6.23-1.11-8.65-2-.55-3.45-2.65-5.34-4.83-7.15a7,7,0,0,1,1-2.81C51.18,167.74,53,172.6,55.71,176.63Z"/><path class="cls-1" d="M110.67,168c-.75.83-1.82,3-3.06,1.79C107.84,168.39,109.52,166.8,110.67,168Z"/><path class="cls-2" d="M104.05,172c1.12.2-.89,1.19-1,1.79v1.53c-.9,1.11-1.88,2.21-2.8,3.32s-1.58,2.84-3.56,2.55a2.67,2.67,0,0,1-.25-1.78C96.63,178.29,102.39,172.93,104.05,172Z"/><path class="cls-2" d="M87,178.41c.13,1.11-.52,1.34-.51,2.3,0,1.34,1.29,2.57,1.27,3.83,0,2.85-3.2,5.1-5.34,6.38a14.09,14.09,0,0,1-3.31,4.6c-4-1.45-5.81,5.15-8.9,2.29-.24-2,2.11-3.46,2.28-5.87-1.77-2.46-5.81-1.27-7.88,0-1,1.17-1.86,2.55-2.8,3.83s-1.61,3.11-3.56,3.07c.18-4.25,2.89-6,4.32-8.94,3.52-2.47,9.74-1.49,12,1.53a10.85,10.85,0,0,0,.51,2.56c1.76-.4,3.36-1.76,4.83-3.07,2.37-2.11,4.24-3.74,5.35-7.14A4.69,4.69,0,0,0,84,182.24c-.83.1-1.12.75-1.78,1,.75,1.45.65,3.73-1.52,3.58-1.08.09-.23-1.11-.26-1.53-1-.19-1.23,2.67-3.56,2,0-1.93,2-3.22,3.31-4.6a37.22,37.22,0,0,0,4.32-4.84C85.52,177.86,86.58,177.82,87,178.41Z"/><path class="cls-2" d="M73.52,182.75h1.27c.14,1.62,1.22,3.49,1,4.6C73.07,188.56,72.77,184.48,73.52,182.75Z"/><path class="cls-2" d="M253.39,139.87c-.47,11.44-.18,23.65-.26,35.48.2.89,1.15.74,2,1,.73.24,2.19-.08,2,1,0,1.74-2.63,1-4.07,1H248c-.19-1.72.41-2.65.26-4.33-2.39.81-3.56,3.72-5.85,4.59a11.51,11.51,0,0,1-6.62,0c-7.31-2.37-9.4-15.32-4.07-20.67,1.08-1.09,6.51-4.23,8.65-4.6,2.83-.48,5.33.32,7.89,1.28-.15-3.51.31-7.63-.26-10.72-.85-.77-3.57.35-4.07-.77-.29-2.49,2.75-1.73,4.33-2C250.11,140.8,251.84,139.76,253.39,139.87Zm-18.07,18.64c-3.41,4.8-1.73,14.31,3.06,16.33,3.44,1.46,7.43.11,8.9-2.55,1.74-3.16.69-7.79,1-12.51C246.13,155.62,238.11,154.59,235.32,158.51Z"/><path class="cls-2" d="M163.58,141.91c-.49,2.49-.63,5.33-1,7.92h-1.27c-1.07-.8-.5-3.24-1-4.6-3.36-1.25-8.44-1.13-12.72-.76-.75,4,.25,9.77-.5,13.78,3.17.61,7.41.14,10.43-.25,1.68-.52-.24-4.67,2.54-4.09,1,.47.49,1.94.51,3.06s0,2.26,0,3.32c0,2.23.39,4.81-.51,6.13h-1.53c-.67-.94.17-3.4-.51-4.34-2-1.86-7.11-.69-10.68-1,.25,3.92-.56,11.11.51,15.06,1,.83,3.78-.06,4.58,1,.52,1.79-1.36,1.18-2.29,1.27-3,.32-7.58-.23-10.69,0,.43-1.35,1.58-2,2.29-3.06.42-9.56.42-20.81,0-30.37-.42-1.2-2.14-1.08-1.52-3.32C147.52,142.42,156.6,140.72,163.58,141.91Z"/><path class="cls-2" d="M314.44,142.17c5.68-1.88,5,7.2,0,5.87C312.68,147.57,311.15,143.26,314.44,142.17Z"/><path class="cls-2" d="M332.25,151.87c.73-1.72,2.51-3,4.33-4.85.7-.7,3.81-4.2,4.83-4.34.85-.12,2.3.37,2.54,1.28.63,2.32-3.42,3.86-5.08,4.85C336.39,150.28,335.23,151.71,332.25,151.87Z"/><path class="cls-2" d="M186.22,157.49c-.89-.89-4.21.65-4.32-1,.06-2,3.34-1.42,4.83-1.78,1.82-.45,3.3-1.64,4.58-1.28.33,6.64-.84,15.3,0,22.46.41,1.47,3.83-.1,4.07,1.53-.08,1.69-2.57,1-4.07,1h-5.09c-.19-1.55.34-2.38.26-3.82-1.5.64-2.24,2.56-4.33,3.57-3.94,1.91-10,1.06-11.7-2.55-2.27-4.89.72-11.84-.76-18.12-.69-.76-3.13.24-3.82-.52-.65-2.28,2.36-1.71,3.82-2a27.6,27.6,0,0,0,4.83-1.78c.33.09.4.45.76.51.35,5.78-3.55,21.07,3.31,22,3,.39,6.67-1.58,7.63-4.34C187.48,167.69,186,162.14,186.22,157.49Z"/><path class="cls-2" d="M205.56,153.15c.53,1,.13,2.93.25,4.34,1.92-.37,2.75-2.68,4.84-3.58,4.29-1.85,9.88.21,11.44,3.32,2.46,4.89-.46,12.63,1,18.89.58,1.2,4-.49,3.82,1.53-.16,1.34-2.79.76-4.33.76h-4.83c-.68-5.95,1.86-13.36-.25-18.37-1.89-4.47-9.49-3.81-11.45.51a124.14,124.14,0,0,0,0,15.31c.3,1.48,3.53,0,4.07,1.28.56,1.83-1.61,1.19-2.8,1.27a53.94,53.94,0,0,1-7.63,0c-1-.06-3.19.57-2.8-1,0-1.66,3-.18,3.81-1,.59-5.57.95-13.39,0-18.88-.74-.7-3.08.2-3.81-.52-.71-1.88,1.92-1.95,3.31-2.29a21.57,21.57,0,0,0,4.83-1.53Z"/><path class="cls-2" d="M317.75,153.4c1,.45.51,1.85.51,2.55,0,5.46-.69,13.68,0,19.66.7,1.33,3.94.12,4.07,2-.22,1.3-2,.73-3.05.76a73.21,73.21,0,0,1-10.43-.25c-.55-2.51,2.73-1.17,3.81-2,.95-5.21.55-13,.26-18.63-.92-.7-3.58.35-4.07-.77-.36-2,2.16-1.46,3.56-1.79a43.7,43.7,0,0,0,5.09-1.78C317.71,153.1,317.74,153.25,317.75,153.4Z"/><path class="cls-2" d="M360.74,153.15c.54,1,.13,2.93.26,4.34,1.95-.27,2.59-2.68,4.58-3.58a12.76,12.76,0,0,1,6.36-.51c8.84,1.63,5,14.08,6.61,23,.86.85,4.14-.75,3.56,1.54-.63.92-2.95.5-4.57.5H372.7c-.19-5.48,2-13.62,0-18.37-1.8-4.36-10-4-11.45.51a14.61,14.61,0,0,0-.25,2.81c-.25,4,.1,8.6.25,12.76.66.95,3.12.1,4.07.76.65,2-1.14,1.38-2.54,1.53a39.52,39.52,0,0,1-8.14,0c-1.23-.11-3.13.5-2.55-1.27.35-1.27,3.4.17,3.82-1a110.15,110.15,0,0,0,.25-18.38c-.54-1.06-3.18,0-4.07-.77-.74-1.94,1.84-1.95,3.31-2.29a21.83,21.83,0,0,0,4.84-1.53Z"/><path class="cls-2" d="M280.35,175.86c.39,1,2.62.1,3.31.77v1.28c-.65.94-2.46.5-3.82.5h-4.32v-3.82c-2.06.31-3.5,3.17-5.85,4.08s-6,.64-7.89-1.28c-2.24-2.24-2.22-7.42.26-10.21,2.81-3.17,8.53-2.86,13.48-4.33.67-5.71-5.79-7.91-10.18-5.36-.85.93-.7,2.87-1.78,3.57-2.1.24-1.44-2.3-1.52-4.09,4.21-3.84,14.51-5.68,17.29.26C281.25,161.31,279.36,169.71,280.35,175.86Zm-15-6.63c-1.13,2.8.08,5.84,2.29,6.38,4,1,6-2.31,7.89-4.09.06-3.43-.4-4.48,0-6.63H275C272.15,166.09,266.58,166.17,265.34,169.23Z"/><path class="cls-2" d="M306.3,154.93c-.45,1-.34,2.43-.51,3.83-.14,1.18.11,3-1,3.32-2.17.47-.76-2.65-1.53-3.57-2.31-2.71-7.75-2.48-9.92-1a7.35,7.35,0,0,0-2.8,5.36c-.69,6.09,2.4,13.05,8.65,13.27,2.87.1,4.28-1.55,6.87-1.28-.56,3.43-5,4.31-8.14,4.34-8.12.09-12.85-5.4-12.21-13.78a11.8,11.8,0,0,1,3.81-8.17C293,154.34,301.08,151.41,306.3,154.93Z"/><path class="cls-2" d="M334.79,153.66c8.6-1.52,15.16,3.19,15.27,11.48.07,5.47-3.26,11.06-8.14,13a14.79,14.79,0,0,1-10.69,0c-7.88-3.54-8.39-16.9-2.29-21.95A13.09,13.09,0,0,1,334.79,153.66Zm4.33,23.22c8.33-1.16,7.92-24.1-4.33-20.93C326.26,158.17,329.28,178.25,339.12,176.88Z"/><path class="cls-1" d="M334.79,156c12.25-3.17,12.66,19.77,4.33,20.93C329.28,178.25,326.26,158.17,334.79,156Z"/><path class="cls-1" d="M248.3,159.78c-.33,4.72.72,9.35-1,12.51-1.47,2.66-5.46,4-8.9,2.55-4.79-2-6.47-11.53-3.06-16.33C238.11,154.59,246.13,155.62,248.3,159.78Z"/><path class="cls-1" d="M275,164.89h.51c-.4,2.15.06,3.2,0,6.63-1.93,1.78-3.92,5-7.89,4.09-2.21-.54-3.42-3.58-2.29-6.38C266.58,166.17,272.15,166.09,275,164.89Z"/><path class="cls-2" d="M341.66,183.78c.06,1-.54,2-.76,3.31-.33,2,.65,5.32-2,4.85-1-.82-.46-3.11-.77-4.59-5-4.54-16-3.35-20.35.76-9,8.48-3.53,27.43,10.43,28.59a24.57,24.57,0,0,0,8.9-1c1.79-.57,2.84-1.74,4.58-2,.81,3.44-4.34,5-7.12,5.61-15.37,3.6-28.91-6.53-26.71-21.69C309.87,183.45,326.1,178.66,341.66,183.78Z"/><path class="cls-2" d="M147.81,185.05c-2.65,11.69,2.78,30.45-2.8,39-1.82,2.81-5.16,5.63-9.67,5.11a19.12,19.12,0,0,1,0-4.6c1.7.28,3.63,1.39,5.34.26,1-.7,1.41-2.91,1.53-4.34.4-4.81,0-11.55,0-18.12s.3-13-.51-17.36c-.79-1.08-3.29-.44-4.58-1a1.27,1.27,0,0,1,.26-1.79c2.16.56,8.62.1,12.46.26,1.32.05,3-.73,2.55,1S149.1,183.81,147.81,185.05Z"/><path class="cls-2" d="M209.37,182.75c5.53-1.46,4.57,7.46-.5,5.87C207.19,188.1,206,183.64,209.37,182.75Z"/><path class="cls-2" d="M437.83,182.75c4.19-1.14,5.23,4.95,2,5.87C435.92,189.77,433.8,183.85,437.83,182.75Z"/><path class="cls-2" d="M257.71,186.33c.84,2.17,0,6.73,0,9.7,2.12.76,4.76-.16,7.12,0,.18,1.27-.23,2-.25,3.06H258c.27,4.9-2.29,16.65,2.54,17.1,1.81.17,2.48-1.71,3.82-.76.62,1.7-1.84,2.37-2.29,3.82-2.9.91-6.15.59-7.64-.76-3.62-3.3-.1-13.19-1.27-19.14-1.43-.31-3.75.55-4.07-.26.13-2.16,2.87-1.72,4.07-2.81a65.32,65.32,0,0,1-.25-7.91C254.52,187.72,255.85,186.76,257.71,186.33Z"/><path class="cls-2" d="M455.89,186.33c.9,2.24-.21,6.49,0,9.7,2.14.73,4.55-.34,7.12,0,.2,1.3-.35,1.85-.25,3.06h-6.87c.78,4.25-1.73,15.61,1.78,16.85,2,.71,3.55-1.32,4.84-.51.43,1.51-1.8,2.4-2.29,3.82-3.31.89-6.61.61-8.14-1.27-3-3.64.1-12.84-1-18.38-.69-.76-3.13.25-3.82-.51,0-2.21,2.73-1.69,3.82-2.81v-7.91C452.73,187.75,453.8,186.53,455.89,186.33Z"/><path class="cls-2" d="M175.28,216.7c.44,1.09,3.33-.27,3.31,1.28.09,2.32-2.67,1-4.07,1s-3,.53-4.32.25v-4.08c-1.86.28-3.53,3.49-6.11,4.34-4,1.31-8.69-.87-9.16-4.6-1.05-8.42,7.32-10.35,15.27-11.23.62-5.87-5.63-8.05-10.18-5.61-.52,1.18-.94,2.46-1.53,3.57-2.32.46-1.73-2-1.78-3.83,4.06-4,14.88-6.1,17.56.51,1.18,2.93.69,7.44.76,10.47C175.09,211.46,174.65,214.09,175.28,216.7Zm-15-7.14c-1,1.81-.84,5,.77,6.12,2.64,1.8,8.32-.39,9.16-3.83.51-2.12-.16-4.12-.26-6.38C167.3,206.75,161.74,206.85,160.27,209.56Z"/><path class="cls-2" d="M200.72,195.52a41.39,41.39,0,0,1-.76,7.14h-1.27c-1.23-.13,0-2.76-.76-3.31a7.48,7.48,0,0,0-6.87-2.3c-7.25.87-7.67,13.77-2,18.12a9.71,9.71,0,0,0,6.36,1.53c2-.16,3.43-1.39,5.09-1.27.06,3.35-3.72,4-6.11,4.33-8.25,1-14.28-4.37-14-13,.12-3.37,1.24-6.5,3.31-8.43A19,19,0,0,1,193.6,194,13.43,13.43,0,0,1,200.72,195.52Z"/><path class="cls-2" d="M212.43,194c1.11,1.75.35,4.11.25,6.38a89.08,89.08,0,0,0,.51,16.08c.74,1.21,4-.11,3.82,2-1,1.62-4.17.55-6.11.51-2.49-.05-5.4.92-7.38-.26-.34-2.21,2.36-1.37,3.82-1.78.94-5.2.56-13,.25-18.64-.83-.78-3.63.42-4.07-.76-.54-2,2.19-1.75,3.56-2a23.53,23.53,0,0,0,4.84-1.53Z"/><path class="cls-2" d="M226.67,194c1.13.48.22,3,.51,4.33,2.38-1.39,4-4.31,8.4-4.33,4.6,0,8.16,2.42,8.65,7.65.4,4.39-.51,9.75.25,15.06.63,1,2.77.46,3.82,1,.18,2.52-3.34,1.55-4.33,1.53-1.5,0-3.3-.09-5.09,0-.12-7.66,3.74-21.72-5.34-21.69a6.19,6.19,0,0,0-6.36,6.12,122.22,122.22,0,0,0,.26,13c.87.83,2.86.53,4.07,1v.77c-.29,1.38-2.31.77-3.31.76-2.31,0-4.08,0-6.61,0-1.13,0-3,.59-3.57-.76,0-1.88,3.11-.63,4.07-1.53a124.19,124.19,0,0,0,.26-18.64c-.9-.79-3.82.44-4.33-.76-.34-2.27,3.11-1.85,4.84-2.3,1.33-.35,2.31-1,3.3-1.27Z"/><path class="cls-2" d="M278.32,194.24c7.36-.72,13.3,2.91,13.74,11,.37,6.95-3.89,13.54-11.45,14.54-4.7.63-9.17-1.19-11.45-4.33-2.82-3.9-3.07-12.38-.26-16.34C270.66,196.62,273.79,194.68,278.32,194.24ZM283.15,217c5.63-2.66,4.38-17.65-1.27-20.17a7.55,7.55,0,0,0-4.58-.25C267.33,198.62,272.16,222.15,283.15,217Z"/><path class="cls-2" d="M355.66,194.24c6.61-.84,11.23,2.17,13,6.13a16.45,16.45,0,0,1-.25,12.25c-3.56,7.46-17.91,10.77-22.65,1C341.24,204.4,346.84,195.36,355.66,194.24Zm.5,23.23c9.57,1.8,10.18-13.12,5.86-18.63a7.22,7.22,0,0,0-7.13-2.3C346.27,198.42,349.07,216.13,356.16,217.47Z"/><path class="cls-2" d="M380.08,194c1.43.35.06,2.64.51,4.33,2.41-1.9,5.33-4.71,9.66-4.33a10.46,10.46,0,0,1,4.58,1.53c5.16,3.71,1.73,13.4,3.06,21.18.56,1.14,3.71-.32,3.81,1.28-.15,2.27-3.54.94-5.85,1a21.13,21.13,0,0,1-3.31.25c-.53-5.32,1.71-14.13-.25-18.63-1.82-4.15-9.51-4-11.19.26-1.29,3.26.22,11.39,0,15.82.48,1.22,3.61-.23,4.07,1,.44,2.47-2.53,1.37-4.58,1.28-1.5-.07-3.34-.06-4.58,0-1.65.07-4.57,1.2-4.33-1,.06-1.57,3-.26,3.82-1,.9-5.24.59-13,.25-18.64-1-.64-3-.23-4.07-.76-.65-2.22,2.1-1.71,3.57-2C377,195.11,378.29,194.27,380.08,194Z"/><path class="cls-2" d="M440.63,194c1.29.18.72,1.87.76,2.8.27,5.85-1.05,14,.25,19.66.68,1,3.21.18,3.82,1.27v.77c-.62,1.58-2.68.57-4.07.51-3-.14-6.26.2-9.16.25v-2c1.47.2,2.18-.37,3.56-.25a75.17,75.17,0,0,0,.26-18.64c-.79-.65-3,.15-3.82-.51v-1.27c.86-1,2.63-.95,4.07-1.28a16.42,16.42,0,0,0,4.07-1.27Z"/><path class="cls-2" d="M402,194.5c3.64.42,8.59,0,12.46.25v1c-.56,1.14-3.15.24-3.81,1.28,1.72,6,4.4,11.07,6.36,16.84,1.6-2.45,2.41-5.58,3.56-8.42s2.88-5.44,2.8-8.42c-.68-.85-3-.07-3.56-1V194.5c3.34.49,7.23-.1,10.17.25v.77c.18,1.36-1.82.55-2.29,1.27-4,7-7.2,14.9-10.43,22.72h-2.8c-3.28-7.59-6.16-15.6-9.92-22.72a5.77,5.77,0,0,0-2.54-.51Z"/><path class="cls-1" d="M277.3,196.54a7.55,7.55,0,0,1,4.58.25c5.65,2.52,6.9,17.51,1.27,20.17C272.16,222.15,267.33,198.62,277.3,196.54Z"/><path class="cls-1" d="M354.89,196.54a7.22,7.22,0,0,1,7.13,2.3c4.32,5.51,3.71,20.43-5.86,18.63C349.07,216.13,346.27,198.42,354.89,196.54Z"/><path class="cls-1" d="M169.94,205.47c.1,2.26.77,4.26.26,6.38-.84,3.44-6.52,5.63-9.16,3.83-1.61-1.09-1.75-4.31-.77-6.12C161.74,206.85,167.3,206.75,169.94,205.47Z"/><path class="cls-2" d="M45,284.85c-2.31,2.17-3.56-.29-5.09-2.3-1-1.29-2.44-2.53-2-3.82C41.68,277.5,45.1,280.57,45,284.85Z"/><path class="cls-1" d="M107.1,155.7c-1.37,1.52-3.25,2.52-4.58,4.08C102.37,158.09,105.62,157,107.1,155.7Z"/></g></g></svg>